<?xml version="1.0" encoding="utf-8"?>
<!-- Generator: Adobe Illustrator 14.0.0, SVG Export Plug-In . SVG Version: 6.00 Build 43363)  -->
<!DOCTYPE svg PUBLIC "-//W3C//DTD SVG 1.1//EN" "http://www.w3.org/Graphics/SVG/1.1/DTD/svg11.dtd">
<svg version="1.1" id="Layer_1" xmlns="http://www.w3.org/2000/svg" xmlns:xlink="http://www.w3.org/1999/xlink" x="0px" y="0px"
	 width="74px" height="67px" viewBox="0 0 74 67" enable-background="new 0 0 74 67" xml:space="preserve">
<g>
	<path fill="#231F20" d="M33.015,59.502l-0.979,0.109c0,0-13.95-0.896-21.673-11.832C0.29,33.514,9.621,21.402,20.143,22.249
		l4.003-7.1c-4.767-2.01-10.682-3.537-17.985-4.386c-22.804,48.858,25.038,54.45,25.038,54.45l4.471,0.697l1.73-4.018L33.015,59.502
		z"/>
	<path fill="#231F20" d="M49.934,22.397C60.91,20.509,71.33,32.986,60.883,47.779c-7.725,10.936-21.674,11.832-21.674,11.832
		l-0.977-0.109l-3.81,3.727l1.154,2.683l4.471-0.697c0,0,47.841-5.592,25.037-54.45c-7.928,0.922-14.217,2.642-19.178,4.91
		L49.934,22.397z"/>
	<path fill="#231F20" d="M35.629,3.454c-43.155,32.317-3.611,59.819-3.611,59.819L35.629,66l3.421-2.727
		C39.051,63.273,81.066,35.012,35.629,3.454z M36.313,59.098L35.4,58.732c0,0-11.878-7.371-13.528-20.658
		c-3.244-26.123,30.076-27.13,27.505,0.17C47.857,54.402,36.313,59.098,36.313,59.098z"/>
</g>
<g>
	
		<linearGradient id="SVGID_1_" gradientUnits="userSpaceOnUse" x1="2.0408" y1="663.582" x2="47.5964" y2="663.582" gradientTransform="matrix(0.9571 0.2899 0.2899 -0.9571 -194.3539 667.1303)">
		<stop  offset="0" style="stop-color:#FBEDB6"/>
		<stop  offset="1" style="stop-color:#FFE02F"/>
	</linearGradient>
	<path fill="url(#SVGID_1_)" d="M34.015,60.502l-0.979,0.109c0,0-13.95-0.896-21.673-11.832
		c-10.074-14.266-0.743-26.377,9.779-25.53l4.003-7.1c-4.767-2.01-10.682-3.537-17.985-4.386
		c-22.804,48.858,25.038,54.45,25.038,54.45l4.471,0.697l1.73-4.018L34.015,60.502z"/>
	
		<linearGradient id="SVGID_2_" gradientUnits="userSpaceOnUse" x1="35.2825" y1="27.6079" x2="72.1052" y2="27.6079" gradientTransform="matrix(1 0 0 -1 0.1401 66.9453)">
		<stop  offset="0" style="stop-color:#68BA99"/>
		<stop  offset="1" style="stop-color:#20AC92"/>
	</linearGradient>
	<path fill="url(#SVGID_2_)" d="M50.934,23.397C61.91,21.509,72.33,33.986,61.883,48.779c-7.725,10.936-21.674,11.832-21.674,11.832
		l-0.977-0.109l-3.81,3.727l1.154,2.683l4.471-0.697c0,0,47.841-5.592,25.037-54.45c-7.928,0.922-14.217,2.642-19.178,4.91
		L50.934,23.397z"/>
	
		<linearGradient id="SVGID_3_" gradientUnits="userSpaceOnUse" x1="37.0564" y1="45.2559" x2="36.7943" y2="3.9718" gradientTransform="matrix(1 0 0 -1 0.1401 66.9453)">
		<stop  offset="0" style="stop-color:#F7AAAB"/>
		<stop  offset="1" style="stop-color:#F37A88"/>
	</linearGradient>
	<path fill="url(#SVGID_3_)" d="M36.629,4.454c-43.155,32.317-3.611,59.819-3.611,59.819L36.629,67l3.421-2.727
		C40.051,64.273,82.066,36.012,36.629,4.454z M37.313,60.098L36.4,59.732c0,0-11.878-7.371-13.528-20.658
		c-3.244-26.123,30.076-27.13,27.505,0.17C48.857,55.402,37.313,60.098,37.313,60.098z"/>
</g>
</svg>
