<?xml version="1.0" encoding="utf-8"?>
<!-- Generator: Adobe Illustrator 14.0.0, SVG Export Plug-In . SVG Version: 6.00 Build 43363)  -->
<!DOCTYPE svg PUBLIC "-//W3C//DTD SVG 1.1//EN" "http://www.w3.org/Graphics/SVG/1.1/DTD/svg11.dtd">
<svg version="1.1" id="Layer_1" xmlns="http://www.w3.org/2000/svg" xmlns:xlink="http://www.w3.org/1999/xlink" x="0px" y="0px"
	 width="74px" height="67px" viewBox="0 0 74 67" enable-background="new 0 0 74 67" xml:space="preserve">
<path d="M26.225,11.213c-9.558,3.589-13.076,13.319-11.694,16.415c7.805-2.102,14.6,0.351,19.997,4.33
	c1.163-6.604,4.392-13.067,11.486-16.931c-1.115-3.15-10.136-7.683-19.399-3.976C26.484,11.104,26.355,11.157,26.225,11.213"/>
<path d="M48.182,16.659c-3.578,2.24-6.002,5.45-7.875,9.228c-1.387,2.804-1.969,6.002-2.306,8.749c0,0-0.054,0.695-0.094,1.847
	c4.257,4.179,16.796,17.651,10.205,25.498c0.176,0.021,0.34,0.052,0.523,0.061c3.059,0.152,5.967-2.649,8.004-5.083
	c3.666-4.381,5-9.926,4.641-15.539c-0.395-6.102-3.707-12.246-1.029-18.248c1.395-3.126,4.723-4.501,7.941-4.345
	c-4.369-4.767-11.594-5.805-17.469-3.454C49.838,15.726,48.988,16.155,48.182,16.659"/>
<path d="M1.002,45.716c2.221-2.332,5.581-3.634,8.746-2.333c6.078,2.498,7.92,9.231,11.846,13.918
	c3.612,4.312,8.401,7.407,14.078,8.048c3.155,0.356,7.193,0.378,9.302-1.843c8.793-9.264-11.209-27.175-11.209-27.175
	c-2.143-1.755-4.769-3.67-7.71-4.74c-3.959-1.443-7.928-2.094-12.064-1.247c-0.933,0.191-1.845,0.468-2.725,0.819
	C5.392,33.515,0.875,39.253,1.002,45.716"/>
<g>
	<defs>
		<path id="SVGID_1_" d="M27.825,11.213c-9.558,3.589-13.076,13.319-11.694,16.415c7.805-2.102,14.6,0.351,19.997,4.33
			c1.163-6.604,4.392-13.067,11.486-16.931c-1.116-3.15-10.137-7.683-19.399-3.976C28.084,11.104,27.956,11.157,27.825,11.213"/>
	</defs>
	<clipPath id="SVGID_2_">
		<use xlink:href="#SVGID_1_"  overflow="visible"/>
	</clipPath>
	
		<linearGradient id="SVGID_3_" gradientUnits="userSpaceOnUse" x1="-382.0083" y1="338.1982" x2="-381.077" y2="338.1982" gradientTransform="matrix(11.9461 29.8487 29.8487 -11.9461 -5505.3379 15449.0791)">
		<stop  offset="0" style="stop-color:#F7AAAB"/>
		<stop  offset="1" style="stop-color:#F37A88"/>
	</linearGradient>
	<polygon clip-path="url(#SVGID_2_)" fill="url(#SVGID_3_)" points="43.61,4.66 51.993,25.609 20.262,38.309 11.878,17.359 	"/>
</g>
<g>
	<defs>
		<path id="SVGID_4_" d="M49.782,16.659c-3.578,2.24-6.002,5.45-7.876,9.228c-1.387,2.804-1.969,6.002-2.306,8.749
			c0,0-0.054,0.695-0.094,1.847c4.257,4.179,16.797,17.651,10.204,25.498c0.176,0.021,0.341,0.052,0.524,0.061
			c3.059,0.152,5.967-2.649,8.004-5.083c3.666-4.381,4.999-9.926,4.64-15.539c-0.394-6.102-3.707-12.246-1.028-18.248
			c1.394-3.126,4.723-4.501,7.941-4.345c-4.37-4.767-11.595-5.805-17.47-3.454C51.438,15.726,50.589,16.155,49.782,16.659"/>
	</defs>
	<clipPath id="SVGID_5_">
		<use xlink:href="#SVGID_4_"  overflow="visible"/>
	</clipPath>
	
		<linearGradient id="SVGID_6_" gradientUnits="userSpaceOnUse" x1="-376.3599" y1="330.8311" x2="-375.4292" y2="330.8311" gradientTransform="matrix(34.5962 -13.8462 -13.8462 -34.5962 17643.5176 6277.4385)">
		<stop  offset="0" style="stop-color:#20AC92"/>
		<stop  offset="1" style="stop-color:#1E9487"/>
	</linearGradient>
	<polygon clip-path="url(#SVGID_5_)" fill="url(#SVGID_6_)" points="33.993,22.708 66.188,9.823 82.474,50.515 50.279,63.399 	"/>
</g>
<g>
	<defs>
		<path id="SVGID_7_" d="M2.603,45.716c2.221-2.332,5.581-3.634,8.746-2.333c6.078,2.498,7.92,9.231,11.846,13.918
			c3.612,4.312,8.401,7.407,14.078,8.048c3.155,0.356,7.192,0.378,9.302-1.843c8.793-9.264-11.209-27.175-11.209-27.175
			c-2.143-1.755-4.769-3.67-7.71-4.74c-3.959-1.443-7.928-2.094-12.064-1.247c-0.933,0.191-1.845,0.468-2.725,0.819
			C6.992,33.515,2.476,39.253,2.603,45.716"/>
	</defs>
	<clipPath id="SVGID_8_">
		<use xlink:href="#SVGID_7_"  overflow="visible"/>
	</clipPath>
	
		<linearGradient id="SVGID_9_" gradientUnits="userSpaceOnUse" x1="-377.0078" y1="330.8691" x2="-376.0777" y2="330.8691" gradientTransform="matrix(39.2011 -15.6892 -15.6892 -39.2011 19977.332 7112.5186)">
		<stop  offset="0" style="stop-color:#68BA99"/>
		<stop  offset="1" style="stop-color:#20AC92"/>
	</linearGradient>
	<polygon clip-path="url(#SVGID_8_)" fill="url(#SVGID_9_)" points="-1,36.713 41.538,19.688 57.823,60.38 15.286,77.405 	"/>
</g>
</svg>
