<?xml version="1.0" encoding="utf-8"?>
<!-- Generator: Adobe Illustrator 14.0.0, SVG Export Plug-In . SVG Version: 6.00 Build 43363)  -->
<!DOCTYPE svg PUBLIC "-//W3C//DTD SVG 1.1//EN" "http://www.w3.org/Graphics/SVG/1.1/DTD/svg11.dtd">
<svg version="1.1" id="Layer_1" xmlns="http://www.w3.org/2000/svg" xmlns:xlink="http://www.w3.org/1999/xlink" x="0px" y="0px"
	 width="1536px" height="1792px" viewBox="0 0 1536 1792" enable-background="new 0 0 1536 1792" xml:space="preserve">
<path d="M1088,928v64c0,8.667-3.167,16.167-9.5,22.5s-13.833,9.5-22.5,9.5H672c-8.667,0-16.167-3.167-22.5-9.5s-9.5-13.833-9.5-22.5
	V544c0-8.667,3.167-16.167,9.5-22.5s13.833-9.5,22.5-9.5h64c8.667,0,16.167,3.167,22.5,9.5s9.5,13.833,9.5,22.5v352h288
	c8.667,0,16.167,3.167,22.5,9.5S1088,919.333,1088,928z M1280,896c0-69.333-13.5-135.5-40.5-198.5S1176,580,1130,534
	s-100.5-82.5-163.5-109.5S837.333,384,768,384s-135.5,13.5-198.5,40.5S452,488,406,534s-82.5,100.5-109.5,163.5S256,826.667,256,896
	s13.5,135.5,40.5,198.5S360,1212,406,1258s100.5,82.5,163.5,109.5S698.667,1408,768,1408s135.5-13.5,198.5-40.5S1084,1304,1130,1258
	s82.5-100.5,109.5-163.5S1280,965.333,1280,896z M1536,896c0,139.333-34.333,267.833-103,385.5s-161.833,210.833-279.5,279.5
	S907.333,1664,768,1664s-267.833-34.333-385.5-103c-117.666-68.667-210.833-161.833-279.5-279.5C34.334,1163.833,0,1035.333,0,896
	s34.334-267.833,103-385.5C171.667,392.833,264.834,299.667,382.5,231C500.167,162.333,628.667,128,768,128
	s267.833,34.333,385.5,103s210.833,161.833,279.5,279.5C1501.667,628.167,1536,756.667,1536,896z"/>
</svg>
