<?xml version="1.0" encoding="utf-8"?>
<!-- Generator: Adobe Illustrator 14.0.0, SVG Export Plug-In . SVG Version: 6.00 Build 43363)  -->
<!DOCTYPE svg PUBLIC "-//W3C//DTD SVG 1.1//EN" "http://www.w3.org/Graphics/SVG/1.1/DTD/svg11.dtd">
<svg version="1.1" id="Layer_1" xmlns="http://www.w3.org/2000/svg" xmlns:xlink="http://www.w3.org/1999/xlink" x="0px" y="0px"
	 width="1664px" height="1792px" viewBox="0 0 1664 1792" enable-background="new 0 0 1664 1792" xml:space="preserve">
<path d="M128,1664h288v-288H128V1664z M480,1664h320v-288H480V1664z M128,1312h288V992H128V1312z M480,1312h320V992H480V1312z
	 M128,928h288V640H128V928z M864,1664h320v-288H864V1664z M480,928h320V640H480V928z M1248,1664h288v-288h-288V1664z M864,1312h320
	V992H864V1312z M512,448V160c0-8.667-3.167-16.167-9.5-22.5S488.667,128,480,128h-64c-8.667,0-16.167,3.167-22.5,9.5
	S384,151.333,384,160v288c0,8.667,3.167,16.167,9.5,22.5s13.833,9.5,22.5,9.5h64c8.667,0,16.167-3.167,22.5-9.5S512,456.667,512,448
	z M1248,1312h288V992h-288V1312z M864,928h320V640H864V928z M1248,928h288V640h-288V928z M1280,448V160
	c0-8.667-3.167-16.167-9.5-22.5s-13.833-9.5-22.5-9.5h-64c-8.667,0-16.167,3.167-22.5,9.5s-9.5,13.833-9.5,22.5v288
	c0,8.667,3.167,16.167,9.5,22.5s13.833,9.5,22.5,9.5h64c8.667,0,16.167-3.167,22.5-9.5S1280,456.667,1280,448z M1664,384v1280
	c0,34.667-12.667,64.667-38,90s-55.333,38-90,38H128c-34.666,0-64.666-12.667-90-38c-25.333-25.333-38-55.333-38-90V384
	c0-34.667,12.667-64.667,38-90c25.334-25.333,55.334-38,90-38h128v-96c0-44,15.667-81.667,47-113S372,0,416,0h64
	c44,0,81.667,15.667,113,47s47,69,47,113v96h384v-96c0-44,15.667-81.667,47-113s69-47,113-47h64c44,0,81.667,15.667,113,47
	s47,69,47,113v96h128c34.667,0,64.667,12.667,90,38S1664,349.333,1664,384z"/>
</svg>
