<?xml version="1.0" encoding="utf-8"?>
<!-- Generator: Adobe Illustrator 14.0.0, SVG Export Plug-In . SVG Version: 6.00 Build 43363)  -->
<!DOCTYPE svg PUBLIC "-//W3C//DTD SVG 1.1//EN" "http://www.w3.org/Graphics/SVG/1.1/DTD/svg11.dtd">
<svg version="1.1" id="Layer_1" xmlns="http://www.w3.org/2000/svg" xmlns:xlink="http://www.w3.org/1999/xlink" x="0px" y="0px"
	 width="1024px" height="1792px" viewBox="0 0 1024 1792" enable-background="new 0 0 1024 1792" xml:space="preserve">
<path d="M1024,1088c0,17.333-6.333,32.333-19,45l-448,448c-12.667,12.667-27.667,19-45,19s-32.333-6.333-45-19L19,1133
	c-12.666-12.667-19-27.667-19-45s6.334-32.333,19-45c12.667-12.667,27.667-19,45-19h896c17.333,0,32.333,6.333,45,19
	S1024,1070.667,1024,1088z M1024,704c0,17.333-6.333,32.333-19,45s-27.667,19-45,19H64c-17.333,0-32.333-6.333-45-19
	C6.334,736.333,0,721.333,0,704s6.334-32.333,19-45l448-448c12.667-12.667,27.667-19,45-19s32.333,6.333,45,19l448,448
	C1017.667,671.667,1024,686.667,1024,704z"/>
</svg>
